<?xml version="1.0" encoding="utf-8"?>
<!-- Generator: Adobe Illustrator 23.0.5, SVG Export Plug-In . SVG Version: 6.00 Build 0)  -->
<svg version="1.1" id="Layer_1" xmlns="http://www.w3.org/2000/svg" xmlns:xlink="http://www.w3.org/1999/xlink" x="0px" y="0px"
	 viewBox="0 0 299 34" style="enable-background:new 0 0 299 34;" xml:space="preserve">
<style type="text/css">
	.st0{fill-rule:evenodd;clip-rule:evenodd;fill:#FFFFFF;}
</style>
<path id="path3032" class="st0" d="M41.8,31.8c-2.7-1.7-4.6-7.4-4.6-14.2c0-0.2,0-0.5,0-0.7l0,0l0,0l0,0c-7.4-1.2-12.8-4.3-12.9-8.1
	l0,0l0,0l0,0c-1.8,2.2-2.9,4.8-2.9,7.6C21.4,24.5,30.3,31.2,41.8,31.8L41.8,31.8L41.8,31.8L41.8,31.8L41.8,31.8L41.8,31.8z M17.9,17
	c0-9.1,11.4-16.4,25.4-16.4c14,0,25.4,7.4,25.4,16.4S57.4,33.4,43.4,33.4C29.3,33.4,17.9,26.1,17.9,17L17.9,17L17.9,17L17.9,17
	L17.9,17z M43.4,2.9c2.7,0,5,4.1,5.9,9.8l0,0l0,0l0,0c5.3-0.8,9-2.7,9-4.9c0-2.9-6.6-5.3-14.8-5.3c-8.2,0-14.8,2.4-14.8,5.3
	c0,2.2,3.7,4.1,9,4.9l0,0l0,0l0,0C38.3,7,40.6,2.9,43.4,2.9L43.4,2.9L43.4,2.9L43.4,2.9L43.4,2.9z M45,31.8
	c11.4-0.6,20.4-7.2,20.4-15.4c0-2.8-1-5.3-2.9-7.6l0,0l0,0l0,0c-0.1,3.7-5.5,6.9-12.9,8.1l0,0l0,0l0,0c0,0.2,0,0.5,0,0.7
	C49.6,24.4,47.6,30.1,45,31.8L45,31.8L45,31.8L45,31.8L45,31.8L45,31.8z M43.4,13.1c1.2,0,2.4-0.1,3.5-0.2l0,0l0,0l0,0
	c-0.6-3.7-1.9-6.2-3.5-6.2c-1.6,0-3,2.6-3.5,6.2l0,0l0,0l0,0C41,13.1,42.1,13.1,43.4,13.1L43.4,13.1L43.4,13.1L43.4,13.1L43.4,13.1z
	 M43.4,26.7c2,0,3.7-4.2,3.8-9.5l0,0l0,0l0,0c-1.2,0.1-2.5,0.2-3.8,0.2c-1.3,0-2.6-0.1-3.8-0.2l0,0l0,0l0,0
	C39.7,22.4,41.3,26.7,43.4,26.7L43.4,26.7L43.4,26.7L43.4,26.7L43.4,26.7z"/>
<g id="g3065" transform="matrix(1.3176826,0,0,1.3176826,-1860.9052,14.947236)">
	<path id="path3034" class="st0" d="M1556.3,1.6c0-6.9,5.6-12.5,12.5-12.5c6.9,0,12.5,5.6,12.5,12.5c0,6.9-5.6,12.5-12.5,12.5
		C1561.9,14,1556.3,8.5,1556.3,1.6L1556.3,1.6L1556.3,1.6L1556.3,1.6z M1568.8,9.5c3.8,0,7-3.5,7-7.9c0-4.4-3.1-7.9-7-7.9
		c-3.8,0-7,3.5-7,7.9S1564.9,9.5,1568.8,9.5L1568.8,9.5L1568.8,9.5L1568.8,9.5z"/>
	<polygon id="polygon3036" class="st0" points="1595.4,13.5 1590.2,13.5 1590.2,-5.7 1590.2,-5.7 1582.8,-5.7 1582.8,-10.1 
		1602.8,-10.1 1602.8,-5.7 1595.4,-5.7 1595.4,-5.7 1595.4,-5.7 1595.4,-5.7 	"/>
	<path id="path3038" class="st0" d="M1609.1,8.2L1609.1,8.2l-2,5.3h-6.1l9.7-23.5h3.3h3.3l9.7,23.5h-6.1l-2-5.3l0,0h-4.8H1609.1
		L1609.1,8.2L1609.1,8.2z M1613.9,4.2h3.3l0,0l-3.3-8.6h0l-3.3,8.6l0,0H1613.9L1613.9,4.2L1613.9,4.2L1613.9,4.2z"/>
	<polygon id="polygon3040" class="st0" points="1498.5,13.5 1493.2,13.5 1493.2,-5.7 1493.3,-5.7 1485.9,-5.7 1485.9,-10.1 
		1505.8,-10.1 1505.8,-5.7 1498.5,-5.7 1498.5,-5.7 1498.5,-5.7 1498.5,-5.7 	"/>
	<path id="path3042" class="st0" d="M1507.2,1.6c0-6.9,5.6-12.5,12.5-12.5c6.9,0,12.5,5.6,12.5,12.5c0,6.9-5.6,12.5-12.5,12.5
		C1512.8,14,1507.2,8.5,1507.2,1.6L1507.2,1.6L1507.2,1.6L1507.2,1.6z M1519.7,9.5c3.8,0,7-3.5,7-7.9c0-4.4-3.1-7.9-7-7.9
		c-3.8,0-7,3.5-7,7.9S1515.8,9.5,1519.7,9.5L1519.7,9.5L1519.7,9.5L1519.7,9.5z"/>
	<polygon id="polygon3044" class="st0" points="1544.2,13.5 1544.2,13.5 1546.9,13.5 1546.9,4.6 1546.9,4.5 1556.1,-10.1 
		1549.9,-10.1 1544.2,-0.2 1538.5,-10.1 1532.4,-10.1 1541.6,4.5 1541.6,4.6 1541.6,13.5 	"/>
</g>
</svg>
